<svg xmlns="http://www.w3.org/2000/svg" xmlns:xlink="http://www.w3.org/1999/xlink" viewBox="0 0 410 473.57"><defs><style>.cls-1{fill:url(#linear-gradient);}.cls-2{fill:url(#linear-gradient-2);}.cls-3{fill:url(#linear-gradient-3);}.cls-4{fill:url(#linear-gradient-4);}.cls-5{fill:url(#linear-gradient-5);}</style><linearGradient id="linear-gradient" x1="340.63" y1="153.8" x2="171.13" y2="41.85" gradientUnits="userSpaceOnUse"><stop offset="0" stop-color="#ee8d66"/><stop offset="0.33" stop-color="#ee8964"/><stop offset="0.67" stop-color="#ed7d5f"/><stop offset="1" stop-color="#eb6956"/></linearGradient><linearGradient id="linear-gradient-2" x1="65.73" y1="95.05" x2="58.09" y2="370.22" gradientUnits="userSpaceOnUse"><stop offset="0" stop-color="#ee8d66"/><stop offset="1" stop-color="#eb6956"/></linearGradient><linearGradient id="linear-gradient-3" x1="358.99" y1="313.36" x2="168.35" y2="427.41" gradientUnits="userSpaceOnUse"><stop offset="0" stop-color="#ee8d66"/><stop offset="0.3" stop-color="#ec8a64"/><stop offset="0.55" stop-color="#e67f5f"/><stop offset="0.78" stop-color="#dc6e56"/><stop offset="1" stop-color="#ce5649"/></linearGradient><linearGradient id="linear-gradient-4" x1="130.87" y1="55.37" x2="46.36" y2="80.73" xlink:href="#linear-gradient-2"/><linearGradient id="linear-gradient-5" x1="59.31" y1="367.35" x2="222.76" y2="494.89" gradientUnits="userSpaceOnUse"><stop offset="0" stop-color="#ee8d66"/><stop offset="0.33" stop-color="#ed8663"/><stop offset="0.79" stop-color="#ec745b"/><stop offset="1" stop-color="#eb6956"/></linearGradient></defs><g id="Layer_2" data-name="Layer 2"><g id="Layer_1-2" data-name="Layer 1"><polygon class="cls-1" points="410 118.36 288.73 189.37 121.64 90.42 205 0 410 118.36"/><polygon class="cls-2" points="122.6 78.24 122.6 390.79 0 355.22 0 118.36 122.6 78.24"/><polygon class="cls-3" points="410 355.07 288.73 284.06 116.27 386.34 205 473.57 410 355.07"/><polygon class="cls-4" points="0 118.36 122.6 90.99 205 0 0 118.36"/><polygon class="cls-5" points="0 355.22 122.6 382.59 205 473.57 0 355.22"/></g></g></svg>